<svg xmlns="http://www.w3.org/2000/svg" width="8750" height="6250" viewBox="0 0 8750 6250">
  <defs>
    <style>
      .cls-1 {
        fill: #fff;
        fill-rule: evenodd;
      }
    </style>
  </defs>
  <path id="MY_CHEMICAL_ROMANCE" data-name="MY CHEMICAL ROMANCE" class="cls-1" d="M1762.52,2722.45v-167.5l44.37,129.38h57.5l44.38-129.38v167.5h226.87V2261.83H1881.89l-46.25,163.75-46.25-163.75H1535.64v460.62h226.88Zm827.49,0V2594.33l130.62-112.5v-220H2493.76v231.25h-34.38V2261.83H2232.51v220l130.62,112.5v128.12h226.88Zm708.12,0,71.25-58.75V2511.2H3142.5v125h-35.62V2347.45h35.62v122.5h226.88v-150l-71.25-58.12H2951.25L2880,2319.95V2663.7l71.25,58.75h346.88Zm389.37,0V2550.58h35.63v171.87H3950V2261.83H3723.13v140.62H3687.5V2261.83H3460.63v460.62H3687.5Zm801.25,0V2574.33H4268.13V2538.7H4460v-93.12H4268.13v-36.25h220.62v-147.5h-447.5v460.62h447.5Zm330.63,0v-167.5l44.37,129.38h57.5l44.38-129.38v167.5H5192.5V2261.83H4938.75l-46.25,163.75-46.25-163.75H4592.5v460.62h226.88Zm755.61,0V2584.33h-43.12V2399.95h43.12V2261.83H5283.74v138.12h44.38v184.38h-44.38v138.12h291.25Zm496.88,0,71.25-58.75V2511.2H5916.24v125h-35.62V2347.45h35.62v122.5h226.88v-150l-71.25-58.12H5724.99l-71.25,58.12V2663.7l71.25,58.75h346.88Zm389.37,0V2571.2h35.63v151.25h226.87v-402.5l-71.25-58.12H6305.62l-71.25,58.12v402.5h226.87Zm0-375h35.63v107.5h-35.63v-107.5Zm753.13,375V2574.33h-172.5v-312.5H6814.99v460.62h399.38Zm-4648.43,750v-150h13.13l34.37,150h236.88l-65-173.12,43.12-35V3069.95l-71.25-58.12H2339.07v460.62h226.87Zm0-375h35.63v120h-35.63v-120Zm780,375,71.25-58.75V3069.33l-71.25-58.13H2999.07l-71.25,58.13V3413.7l71.25,58.75h346.87Zm-191.25-375.62h35.63V3386.2h-35.63V3096.83Zm593.13,375.62v-167.5l44.37,129.38h57.5l44.38-129.38v167.5h226.87V3011.83H3867.19l-46.25,163.75-46.25-163.75H3520.94v460.62h226.88Zm703.74,0V3321.2h35.62v151.25h226.88v-402.5l-71.25-58.12H4295.93l-71.25,58.12v402.5h226.88Zm0-375h35.62v107.5h-35.62v-107.5Zm580.62,375V3326.83l45,145.62h226.88V3011.83H5077.18v145.62l-44.37-145.62h-227.5v460.62h226.87Zm781.25,0,71.25-58.75V3261.2H5657.81v125h-35.63V3097.45h35.63v122.5h226.87v-150l-71.25-58.12H5466.56l-71.25,58.12V3413.7l71.25,58.75h346.87Zm597.5,0V3324.33H6190.31V3288.7h191.87v-93.12H6190.31v-36.25h220.62v-147.5h-447.5v460.62h447.5Z"/>
</svg>
